<?xml version="1.0" encoding="UTF-8" standalone="no" ?>
<!DOCTYPE svg PUBLIC "-//W3C//DTD SVG 1.1//EN" "http://www.w3.org/Graphics/SVG/1.1/DTD/svg11.dtd">
<svg xmlns="http://www.w3.org/2000/svg" xmlns:xlink="http://www.w3.org/1999/xlink" version="1.1" width="300" height="300" viewBox="0 0 300 300" xml:space="preserve">
<desc>Created with Fabric.js 5.2.4</desc>
<defs>
</defs>
<g transform="matrix(1 0 0 1 150 150)" id="3525be3b-2fe7-478d-9fdb-f401dab79e19"  >
<rect style="stroke: none; stroke-width: 1; stroke-dasharray: none; stroke-linecap: butt; stroke-dashoffset: 0; stroke-linejoin: miter; stroke-miterlimit: 4; fill: rgb(255,255,255); fill-rule: nonzero; opacity: 1; visibility: hidden;" vector-effect="non-scaling-stroke"  x="-150" y="-150" rx="0" ry="0" width="300" height="300" />
</g>
<g transform="matrix(Infinity NaN NaN Infinity 0 0)" id="23162918-ded0-4083-ac96-d829abf5ccbd"  >
</g>
<g transform="matrix(7.34 0 0 7.34 150.7 150.7)"  >
<path style="stroke: none; stroke-width: 1; stroke-dasharray: none; stroke-linecap: butt; stroke-dashoffset: 0; stroke-linejoin: miter; stroke-miterlimit: 4; fill: rgb(0,0,0); fill-rule: nonzero; opacity: 1;"  transform=" translate(-24, -24)" d="M 11.1 35.25 Q 14.25 33.05 17.35 31.875 Q 20.45 30.7 24 30.7 Q 27.55 30.7 30.675 31.875 Q 33.8 33.05 36.95 35.25 Q 39.150000000000006 32.55 40.075 29.8 Q 41 27.05 41 24 Q 41 16.75 36.125 11.875 Q 31.25 7 24 7 Q 16.75 7 11.875 11.875 Q 7 16.75 7 24 Q 7 27.05 7.95 29.8 Q 8.9 32.55 11.1 35.25 Z M 24 25.5 Q 21.1 25.5 19.125 23.525 Q 17.15 21.549999999999997 17.15 18.65 Q 17.15 15.749999999999998 19.125 13.774999999999999 Q 21.1 11.799999999999999 24 11.8 Q 26.9 11.8 28.875 13.775 Q 30.85 15.75 30.85 18.65 Q 30.85 21.549999999999997 28.875 23.525 Q 26.9 25.5 24 25.5 Z M 24 44 Q 19.9 44 16.25 42.425 Q 12.6 40.849999999999994 9.875 38.125 Q 7.15 35.4 5.575 31.75 Q 4 28.1 4 24 Q 4 19.85 5.575 16.225 Q 7.15 12.600000000000001 9.875 9.875000000000002 Q 12.6 7.150000000000002 16.25 5.575000000000002 Q 19.9 4 24 4 Q 28.15 4 31.775 5.575 Q 35.4 7.15 38.125 9.875 Q 40.85 12.6 42.425 16.225 Q 44 19.85 44 24 Q 44 28.1 42.425 31.75 Q 40.849999999999994 35.4 38.125 38.125 Q 35.4 40.85 31.775 42.425 Q 28.15 44 24 44 Z M 24 41 Q 26.75 41 29.375 40.2 Q 32 39.400000000000006 34.55 37.400000000000006 Q 31.999999999999996 35.60000000000001 29.349999999999998 34.650000000000006 Q 26.7 33.7 24 33.7 Q 21.3 33.7 18.65 34.650000000000006 Q 15.999999999999998 35.60000000000001 13.45 37.400000000000006 Q 16 39.400000000000006 18.625 40.2 Q 21.25 41 24 41 Z M 24 22.5 Q 25.7 22.5 26.775 21.425 Q 27.849999999999998 20.35 27.849999999999998 18.650000000000002 Q 27.849999999999998 16.950000000000003 26.775 15.875000000000002 Q 25.7 14.8 24 14.8 Q 22.3 14.8 21.225 15.875 Q 20.150000000000002 16.95 20.15 18.65 Q 20.15 20.349999999999998 21.224999999999998 21.424999999999997 Q 22.299999999999997 22.499999999999996 24 22.5 Z M 24 18.65 Z M 24 37.349999999999994 Z" stroke-linecap="round" />
</g>
</svg>